<?xml version="1.0" encoding="iso-8859-1"?>
<!-- Generator: Adobe Illustrator 19.0.0, SVG Export Plug-In . SVG Version: 6.00 Build 0)  -->
<svg version="1.1" id="Capa_1" xmlns="http://www.w3.org/2000/svg" xmlns:xlink="http://www.w3.org/1999/xlink" x="0px" y="0px"
	 viewBox="0 0 512 512" style="enable-background:new 0 0 512 512;" xml:space="preserve">
<g>
	<g>
		<path d="M354.957,136.671c-26.887-26.89-68.807-29.806-98.957-8.758c-30.151-21.047-72.072-18.129-98.958,8.757
			c-14.612,14.611-22.658,34.037-22.658,54.7c0,20.663,8.046,40.09,22.658,54.701l88.515,88.515c2.77,2.77,6.526,4.326,10.443,4.326
			c3.918,0,7.674-1.557,10.443-4.326l88.514-88.514c14.612-14.612,22.659-34.038,22.659-54.701
			C377.616,170.708,369.568,151.281,354.957,136.671z M334.071,225.185L256,303.256l-78.072-78.071
			c-18.646-18.646-18.646-48.984,0-67.628c9.322-9.322,21.568-13.983,33.815-13.983c12.246,0,24.491,4.661,33.814,13.983
			c5.767,5.767,15.119,5.768,20.887,0c9.032-9.032,21.04-14.006,33.815-14.006c12.773,0,24.782,4.974,33.814,14.006
			c9.032,9.032,14.007,21.04,14.007,33.814C348.078,204.143,343.103,216.152,334.071,225.185z"/>
	</g>
</g>
<g>
	<g>
		<path d="M467.692,34.462H44.308C19.876,34.462,0,54.338,0,78.769v275.692c0,24.431,19.876,44.308,44.308,44.308h145.231
			l54.646,72.862c2.789,3.719,7.167,5.908,11.815,5.908c4.649,0,9.026-2.189,11.815-5.908l54.646-72.862h145.231
			c24.431,0,44.308-19.876,44.308-44.308V78.769C512,54.338,492.124,34.462,467.692,34.462z M482.462,354.462
			c0,8.144-6.625,14.769-14.769,14.769H315.077c-4.649,0-9.026,2.189-11.815,5.908L256,438.154l-47.262-63.015
			c-2.789-3.719-7.167-5.908-11.815-5.908H44.308c-8.144,0-14.769-6.625-14.769-14.769V78.769C29.538,70.625,36.164,64,44.308,64
			h423.385c8.144,0,14.769,6.625,14.769,14.769V354.462z"/>
	</g>
</g>
<g>
</g>
<g>
</g>
<g>
</g>
<g>
</g>
<g>
</g>
<g>
</g>
<g>
</g>
<g>
</g>
<g>
</g>
<g>
</g>
<g>
</g>
<g>
</g>
<g>
</g>
<g>
</g>
<g>
</g>
</svg>
